<svg width="19" height="19" viewBox="0 0 19 19" fill="none" xmlns="http://www.w3.org/2000/svg">
<path opacity="0.9" fill-rule="evenodd" clip-rule="evenodd" d="M18.8262 7.57857C19.3103 9.92717 18.7206 12.7159 17.8232 14.1277C17.6902 14.3869 17.4454 14.6661 17.2388 14.8749C16.8344 15.2854 16.3015 15.5812 15.686 15.6951C14.104 15.9883 12.5787 14.9679 12.279 13.4161C12.0981 12.4776 12.4794 11.258 12.9095 10.4552C14.5217 7.4481 18.3171 5.24303 14.5137 1.43048C16.6659 2.77005 18.2799 4.93423 18.8253 7.5777L18.8262 7.57857Z" fill="#0A0A0A"/>
<path fill-rule="evenodd" clip-rule="evenodd" d="M18.8367 7.5905C18.3658 5.25634 17.0898 3.28777 15.3543 1.92647C15.1026 1.72874 14.8343 1.53891 14.5721 1.37281C14.4931 1.32272 14.4098 1.27614 14.323 1.24275C14.145 1.1742 13.9521 1.15135 13.7504 1.19002C13.2496 1.28493 12.8971 1.71731 12.8839 2.2077C12.8199 4.53219 17.5186 8.69957 17.8264 12.1498C17.9089 13.0744 17.7142 14.1483 17.2573 14.9656C18.8604 13.3275 19.2725 9.74625 18.8376 7.59138L18.8367 7.5905Z" fill="#0A0A0A"/>
<path opacity="0.9" fill-rule="evenodd" clip-rule="evenodd" d="M6.51165 18.4984C4.2084 17.7271 2.05246 15.8109 1.25854 14.3264C1.09711 14.0811 0.973608 13.7293 0.892452 13.447C0.733667 12.8921 0.73896 12.2844 0.944498 11.6987C1.47378 10.1914 3.12866 9.39725 4.64064 9.92491C5.55542 10.2441 6.43667 11.1878 6.92714 11.9634C8.76639 14.8681 8.81491 19.2415 14.0548 17.903C11.808 19.0744 9.10425 19.3664 6.51165 18.4984Z" fill="#0A0A0A"/>
<path fill-rule="evenodd" clip-rule="evenodd" d="M6.52551 18.4923C8.79084 19.2553 11.1435 19.1315 13.198 18.3013C13.4961 18.1811 13.7959 18.0423 14.0728 17.8973C14.1557 17.854 14.2386 17.8044 14.3109 17.7452C14.4599 17.6241 14.5763 17.4676 14.6451 17.2722C14.8144 16.7868 14.616 16.2626 14.1962 16.0035C12.2087 14.7781 6.22482 16.7851 3.07153 15.3174C2.22677 14.924 1.39171 14.2141 0.911133 13.4042C1.52839 15.6278 4.4339 17.7894 6.52463 18.4932L6.52551 18.4923Z" fill="#0A0A0A"/>
<path opacity="0.9" fill-rule="evenodd" clip-rule="evenodd" d="M3.27959 2.39056C5.10198 0.814593 7.83643 -0.0625873 9.51485 0.00354931C9.80717 -0.0112444 10.1724 0.0592433 10.4559 0.131472C11.0133 0.273317 11.5348 0.581375 11.9359 1.04955C12.9683 2.25394 12.8208 4.05964 11.6059 5.08302C10.8711 5.70174 9.61493 5.98021 8.70022 6.01067C5.27316 6.12467 1.48091 3.97958 0 9.10952C0.120263 6.61112 1.22809 4.1632 3.27959 2.38969V2.39056Z" fill="#0A0A0A"/>
<path fill-rule="evenodd" clip-rule="evenodd" d="M3.2685 2.38497C1.48576 3.93504 0.415071 6.00035 0.0948236 8.16401C0.0485753 8.47821 0.0171613 8.80197 0.00232696 9.11007C-0.00203609 9.20233 -0.00116348 9.29807 0.0127983 9.38858C0.0415944 9.5757 0.116639 9.75325 0.249275 9.90817C0.578249 10.2937 1.1245 10.386 1.5547 10.1571C3.59224 9.07352 4.87498 2.97854 7.70049 1.02289C8.45791 0.498949 9.47974 0.140369 10.4108 0.134277C8.20835 -0.445368 4.91512 0.954135 3.26938 2.38497H3.2685Z" fill="#0A0A0A"/>
</svg>
