<svg width="44" height="30" viewBox="0 0 44 30" fill="none" xmlns="http://www.w3.org/2000/svg">
<rect x="0.177703" y="0.177703" width="43.6446" height="29.6446" fill="#F7F1E8" stroke="#F7F1E8" stroke-width="0.355405"/>
<path fill-rule="evenodd" clip-rule="evenodd" d="M10.4931 11.1672C11.084 11.2167 11.6749 10.8698 12.0442 10.4299C12.4074 9.97766 12.6474 9.37051 12.5859 8.75098C12.0627 8.77576 11.4164 9.09792 11.047 9.55018C10.7085 9.94049 10.4192 10.5724 10.4931 11.1672ZM17.5225 19.1469V9.48828H21.1233C22.9822 9.48828 24.281 10.7769 24.281 12.6603C24.281 14.5437 22.9576 15.8447 21.0741 15.8447H19.012V19.1469H17.5225ZM12.5794 11.2848C12.0588 11.2547 11.5838 11.4424 11.2001 11.594C10.9532 11.6916 10.7441 11.7742 10.5851 11.7742C10.4066 11.7742 10.1889 11.6872 9.94441 11.5895C9.62411 11.4614 9.25792 11.315 8.8739 11.322C7.9937 11.3344 7.17504 11.8362 6.7257 12.6354C5.80241 14.2338 6.48565 16.6004 7.37817 17.9015C7.81519 18.5458 8.33839 19.2521 9.02779 19.2273C9.33108 19.2158 9.54925 19.1226 9.77503 19.0261C10.035 18.9151 10.305 18.7998 10.7266 18.7998C11.1337 18.7998 11.3919 18.9121 11.6398 19.0199C11.8755 19.1225 12.1018 19.2209 12.4378 19.2149C13.1518 19.2025 13.6012 18.5706 14.0382 17.9263C14.5098 17.2347 14.7171 16.5598 14.7485 16.4574L14.7522 16.4456C14.7515 16.4448 14.7456 16.4421 14.7354 16.4374C14.5777 16.3647 13.3727 15.8095 13.3611 14.3205C13.3495 13.0708 14.3169 12.4376 14.4692 12.3379L14.4692 12.3379C14.4785 12.3318 14.4847 12.3278 14.4875 12.3256C13.872 11.4087 12.9118 11.3096 12.5794 11.2848ZM27.0017 19.2211C27.9373 19.2211 28.8052 18.7441 29.1992 17.9882H29.2299V19.1468H30.6087V14.3392C30.6087 12.9452 29.5008 12.0469 27.7957 12.0469C26.2138 12.0469 25.0443 12.9576 25.0012 14.2091H26.3431C26.4539 13.6143 27.0017 13.224 27.7527 13.224C28.6636 13.224 29.1745 13.6515 29.1745 14.4383V14.9711L27.3156 15.0826C25.586 15.1879 24.6504 15.9004 24.6504 17.1395C24.6504 18.3909 25.6168 19.2211 27.0017 19.2211ZM27.4014 18.0751C26.6073 18.0751 26.1026 17.691 26.1026 17.1024C26.1026 16.4953 26.5889 16.1421 27.5183 16.0864L29.1741 15.9811V16.5263C29.1741 17.4308 28.4108 18.0751 27.4014 18.0751ZM35.1813 19.5245C34.5842 21.2159 33.901 21.7735 32.4484 21.7735C32.3376 21.7735 31.9682 21.7611 31.8821 21.7363V20.5777C31.9744 20.5901 32.2021 20.6025 32.3191 20.6025C32.9777 20.6025 33.347 20.3237 33.5748 19.5989L33.7102 19.1714L31.1865 12.1396H32.7438L34.4981 17.8456H34.5289L36.2831 12.1396H37.7973L35.1813 19.5245ZM19.0116 10.7519H20.7289C22.0215 10.7519 22.7602 11.4458 22.7602 12.6663C22.7602 13.8868 22.0215 14.5868 20.7228 14.5868H19.0116V10.7519Z" fill="#0A0A0A"/>
</svg>
