<?xml version="1.0"?>
<svg xmlns="http://www.w3.org/2000/svg" width="32" height="32" viewBox="0 0 32 32" fill="none">
<mask id="mask0_2737_3026" style="mask-type:alpha" maskUnits="userSpaceOnUse" x="0" y="0" width="32" height="32">
<rect width="32" height="32" fill="#F4F6F8"/>
</mask>
<g mask="url(#mask0_2737_3026)">
<path d="M15.9998 28.6665C14.4272 28.6665 12.9537 28.369 11.5795 27.7742C10.2051 27.1793 9.00673 26.3707 7.9845 25.3485C6.96228 24.3263 6.15373 23.1279 5.55884 21.7535C4.96395 20.3793 4.6665 18.9058 4.6665 17.3332H6.6665C6.6665 19.9332 7.57206 22.1387 9.38317 23.9498C11.1943 25.7609 13.3998 26.6665 15.9998 26.6665C18.5998 26.6665 20.8054 25.7609 22.6165 23.9498C24.4276 22.1387 25.3332 19.9332 25.3332 17.3332C25.3332 14.7332 24.4276 12.5276 22.6165 10.7165C20.8054 8.90538 18.5998 7.99982 15.9998 7.99982H15.6458L17.7638 10.1178L16.3588 11.5638L11.7948 6.98716L16.3845 2.41016L17.7895 3.85616L15.6458 5.99982H15.9998C17.5725 5.99982 19.0459 6.29727 20.4202 6.89216C21.7946 7.48705 22.9929 8.2956 24.0152 9.31782C25.0374 10.34 25.8459 11.5384 26.4408 12.9128C27.0357 14.287 27.3332 15.7605 27.3332 17.3332C27.3332 18.9058 27.0357 20.3793 26.4408 21.7535C25.8459 23.1279 25.0374 24.3263 24.0152 25.3485C22.9929 26.3707 21.7946 27.1793 20.4202 27.7742C19.0459 28.369 17.5725 28.6665 15.9998 28.6665Z" fill="#EFE3D8"/>
</g>
</svg>
