<svg width="32" height="32" viewBox="0 0 32 32" fill="none" xmlns="http://www.w3.org/2000/svg">
<mask id="mask0_2737_3026" style="mask-type:alpha" maskUnits="userSpaceOnUse" x="0" y="0" width="32" height="32">
<rect width="32" height="32" fill="#F4F6F8"/>
</mask>
<g mask="url(#mask0_2737_3026)">
<path d="M16.0001 28.6665C14.4274 28.6665 12.954 28.369 11.5797 27.7742C10.2053 27.1793 9.00697 26.3707 7.98475 25.3485C6.96253 24.3263 6.15397 23.1279 5.55908 21.7535C4.96419 20.3793 4.66675 18.9058 4.66675 17.3332H6.66675C6.66675 19.9332 7.5723 22.1387 9.38341 23.9498C11.1945 25.7609 13.4001 26.6665 16.0001 26.6665C18.6001 26.6665 20.8056 25.7609 22.6167 23.9498C24.4279 22.1387 25.3334 19.9332 25.3334 17.3332C25.3334 14.7332 24.4279 12.5276 22.6167 10.7165C20.8056 8.90538 18.6001 7.99982 16.0001 7.99982H15.6461L17.7641 10.1178L16.3591 11.5638L11.7951 6.98716L16.3847 2.41016L17.7897 3.85616L15.6461 5.99982H16.0001C17.5727 5.99982 19.0462 6.29727 20.4204 6.89216C21.7949 7.48705 22.9932 8.2956 24.0154 9.31782C25.0376 10.34 25.8462 11.5384 26.4411 12.9128C27.036 14.287 27.3334 15.7605 27.3334 17.3332C27.3334 18.9058 27.036 20.3793 26.4411 21.7535C25.8462 23.1279 25.0376 24.3263 24.0154 25.3485C22.9932 26.3707 21.7949 27.1793 20.4204 27.7742C19.0462 28.369 17.5727 28.6665 16.0001 28.6665Z" fill="#F7F1E8"/>
</g>
</svg>
