<?xml version="1.0"?>
<svg xmlns="http://www.w3.org/2000/svg" width="32" height="32" viewBox="0 0 32 32" fill="none">
<mask id="mask0_2737_3031" style="mask-type:alpha" maskUnits="userSpaceOnUse" x="0" y="0" width="32" height="32">
<rect width="32" height="32" fill="#F4F6F8"/>
</mask>
<g mask="url(#mask0_2737_3031)">
<path d="M11.7486 29.1535L9.36929 25.1435L4.85129 24.1535L5.29229 19.5025L2.23096 15.9999L5.29229 12.4972L4.85129 7.84619L9.36929 6.85619L11.7486 2.84619L16 4.65119L20.2513 2.84619L22.6306 6.85619L27.1486 7.84619L26.7076 12.4972L29.769 15.9999L26.7076 19.5025L27.1486 24.1535L22.6306 25.1435L20.2513 29.1535L16 27.3485L11.7486 29.1535ZM12.6 26.5999L16 25.1589L19.441 26.5999L21.3333 23.3999L25 22.5589L24.6666 18.7999L27.1333 15.9999L24.6666 13.1589L25 9.39986L21.3333 8.59986L19.4 5.39986L16 6.84086L12.559 5.39986L10.6666 8.59986L6.99996 9.39986L7.33329 13.1589L4.86662 15.9999L7.33329 18.7999L6.99996 22.5999L10.6666 23.3999L12.6 26.5999ZM14.6 20.2715L21.6716 13.1999L20.2666 11.7539L14.6 17.4205L11.7333 14.5949L10.3283 15.9999L14.6 20.2715Z" fill="#EFE3D8"/>
</g>
</svg>
