<svg width="110" height="17" viewBox="0 0 110 17" fill="none" xmlns="http://www.w3.org/2000/svg">
<path opacity="0.9" fill-rule="evenodd" clip-rule="evenodd" d="M86.1647 8.59616C86.511 10.277 86.0892 12.2728 85.4472 13.2832C85.3521 13.4687 85.177 13.6685 85.0292 13.8179C84.7399 14.1118 84.3587 14.3234 83.9184 14.405C82.7867 14.6148 81.6956 13.8846 81.4812 12.774C81.3518 12.1023 81.6246 11.2295 81.9322 10.6549C83.0855 8.50278 85.8006 6.92467 83.0798 4.19612C84.6194 5.15482 85.7739 6.70367 86.164 8.59554L86.1647 8.59616Z" fill="#F4F6F8"/>
<path opacity="0.9" fill-rule="evenodd" clip-rule="evenodd" d="M86.1725 8.60393C85.8356 6.93343 84.9229 5.52457 83.6814 4.55033C83.5014 4.40881 83.3094 4.27296 83.1219 4.15409C83.0654 4.11823 83.0058 4.0849 82.9437 4.061C82.8164 4.01194 82.6784 3.99559 82.5341 4.02326C82.1759 4.09119 81.9237 4.40063 81.9143 4.75159C81.8685 6.41517 85.2297 9.39767 85.4498 11.8669C85.5088 12.5286 85.3696 13.2972 85.0427 13.8821C86.1895 12.7097 86.4843 10.1468 86.1731 8.60456L86.1725 8.60393Z" fill="#F4F6F8"/>
<path opacity="0.9" fill-rule="evenodd" clip-rule="evenodd" d="M77.3557 16.4094C75.7081 15.8574 74.1659 14.486 73.5979 13.4236C73.4825 13.248 73.3941 12.9962 73.3361 12.7942C73.2225 12.3971 73.2263 11.9621 73.3733 11.543C73.7519 10.4642 74.9357 9.89589 76.0173 10.2735C76.6717 10.502 77.3021 11.1773 77.6529 11.7324C78.9686 13.8113 79.0033 16.9412 82.7516 15.9833C81.1444 16.8216 79.2103 17.0306 77.3557 16.4094Z" fill="#F4F6F8"/>
<path opacity="0.9" fill-rule="evenodd" clip-rule="evenodd" d="M77.3656 16.4059C78.9861 16.9519 80.669 16.8633 82.1387 16.2692C82.3519 16.1832 82.5664 16.0838 82.7645 15.98C82.8237 15.949 82.883 15.9136 82.9348 15.8712C83.0414 15.7845 83.1246 15.6725 83.1738 15.5327C83.2949 15.1853 83.153 14.8101 82.8528 14.6247C81.431 13.7478 77.1505 15.1841 74.8948 14.1337C74.2905 13.8522 73.6931 13.3441 73.3494 12.7645C73.7909 14.3558 75.8693 15.9029 77.3649 16.4065L77.3656 16.4059Z" fill="#F4F6F8"/>
<path opacity="0.9" fill-rule="evenodd" clip-rule="evenodd" d="M75.0438 4.88245C76.3474 3.75456 78.3035 3.12679 79.5041 3.17412C79.7132 3.16353 79.9745 3.21398 80.1773 3.26567C80.576 3.36719 80.949 3.58766 81.236 3.92272C81.9745 4.78467 81.869 6.07697 80.9999 6.80937C80.4743 7.25218 79.5757 7.45147 78.9214 7.47327C76.4699 7.55486 73.7571 6.01967 72.6978 9.69104C72.7838 7.903 73.5763 6.15108 75.0438 4.88182V4.88245Z" fill="#F4F6F8"/>
<path opacity="0.9" fill-rule="evenodd" clip-rule="evenodd" d="M75.0359 4.87845C73.7606 5.9878 72.9947 7.46589 72.7656 9.01437C72.7325 9.23923 72.71 9.47094 72.6994 9.69144C72.6963 9.75747 72.6969 9.82598 72.7069 9.89076C72.7275 10.0247 72.7812 10.1517 72.8761 10.2626C73.1114 10.5386 73.5022 10.6046 73.8099 10.4408C75.2674 9.66528 76.185 5.30325 78.2062 3.90364C78.7481 3.52867 79.479 3.27204 80.145 3.26768C78.5695 2.85284 76.2137 3.85443 75.0365 4.87845H75.0359Z" fill="#F4F6F8"/>
<path d="M8.97201 13.8333V16.6667H0V0H2.9748V13.8333H8.97201Z" fill="#F4F6F8"/>
<path d="M22.0849 3.33333V16.6905H19.0863V15.2143C18.3961 16.3333 17.1586 17 15.1595 17C11.3756 17 10.1143 14.5952 10.1143 11.119V3.33333H13.0891V10.6667C13.0891 12.881 13.8982 14.381 16.1115 14.381C18.3247 14.381 19.0863 12.881 19.0863 10.6667V3.33333H22.0849Z" fill="#F4F6F8"/>
<path d="M43.7178 8.88097V16.6667H40.743V9.33335C40.743 7.14288 40.5764 5.38097 38.3393 5.38097C36.4117 5.38097 35.6025 6.6905 35.6025 8.4524V16.6667H32.6277V9.33335C32.6277 7.14288 32.4373 5.38097 30.2479 5.38097C28.6296 5.38097 27.6777 6.33335 27.5349 7.59526V16.6667H24.5601V3.30954H27.5349V4.07145C28.1536 3.33335 29.1294 2.92859 30.7001 2.92859C33.0323 2.92859 34.1746 3.80954 34.841 5.33335C35.4597 3.80954 36.4593 2.92859 38.8391 2.92859C42.5993 2.92859 43.7178 5.42859 43.7178 8.88097Z" fill="#F4F6F8"/>
<path d="M57.8303 3.30953V16.6667H55.141V15.2381C54.1177 16.1667 52.785 16.6905 51.4285 16.6905C48.1205 16.6905 45.4551 13.6905 45.4551 10C45.4551 6.30953 48.1205 3.30953 51.4285 3.30953C52.785 3.30953 54.1177 3.83334 55.141 4.76191V3.30953H57.8303ZM55.141 7.23811C54.4509 6.2143 53.38 5.57144 52.19 5.57144C50.1196 5.57144 48.4299 7.54763 48.4299 10C48.4299 12.4524 50.1196 14.4286 52.19 14.4286C53.38 14.4286 54.4509 13.7857 55.141 12.7857V7.23811Z" fill="#F4F6F8"/>
<path d="M71.7994 13.4745C70.5143 15.5459 68.2772 16.7364 65.9212 16.7364C62.1372 16.7364 58.9482 13.6887 58.9482 9.80778C58.9482 5.92683 62.1134 2.8554 65.9212 2.8554C68.2058 2.8554 70.3953 3.99826 71.7042 5.97445L69.3482 7.52207C68.5866 6.3554 67.3253 5.68873 65.945 5.68873C63.7079 5.68873 61.9468 7.61731 61.9468 9.8554C61.9468 12.0935 63.6841 14.1173 65.9212 14.1173C67.3015 14.1173 68.6104 13.403 69.3482 12.2364L71.7994 13.4745Z" fill="#F4F6F8"/>
<path d="M94.4597 3.42685C95.0309 3.42685 95.5782 3.52209 96.1256 3.68876L95.959 5.80781C95.6734 5.71257 94.9119 5.49828 94.0551 5.49828C92.9842 5.49828 91.7229 5.80781 91.0327 7.0459V16.6173H88.3435V3.284H91.0327V4.56971C92.0323 3.83162 93.2222 3.42685 94.4597 3.42685Z" fill="#F4F6F8"/>
<path d="M99.6238 10.8316C100.052 12.6411 101.623 14.1411 103.622 14.1411C105.002 14.1411 106.525 13.4268 107.239 12.2364L109.691 12.9745C108.477 15.3792 106.049 16.8078 103.455 16.8078C99.6476 16.8078 96.4824 13.7364 96.4824 9.8554C96.4824 5.97445 99.5762 2.8554 103.432 2.8554C107.287 2.8554 110 5.97445 110 9.83159C110 10.1649 109.952 10.4983 109.905 10.8316H99.6238ZM107.168 8.61731C106.882 7.16493 105.978 5.54588 103.408 5.54588C101.599 5.54588 100.147 6.90302 99.6714 8.61731H107.168Z" fill="#F4F6F8"/>
</svg>
