<svg width="43" height="30" viewBox="0 0 43 30" fill="none" xmlns="http://www.w3.org/2000/svg">
<rect x="0.177703" y="0.177703" width="42.6446" height="29.6446" fill="#F7F1E8" stroke="#F7F1E8" stroke-width="0.355405"/>
<path d="M18.1025 29.375L42.3668 22.1875V27.598C42.3668 28.5794 41.5712 29.375 40.5898 29.375H18.1025Z" fill="#0A0A0A"/>
<path d="M18.3379 12.0127C18.805 12.0127 19.3388 12.0801 19.7393 12.3486V13.6924C19.4055 13.2894 18.8719 13.0205 18.3379 13.0205C17.27 13.0877 16.402 14.028 16.4688 15.1025V15.2363C16.4688 16.3108 17.3365 17.117 18.4043 17.1172C18.9382 17.1172 19.4055 16.8482 19.7393 16.4453V17.7891C19.2723 17.9904 18.8052 18.124 18.2715 18.124C16.6029 18.124 15.2676 16.7141 15.2676 15.0352C15.2676 13.289 16.6025 11.8784 18.3379 12.0127ZM28.8164 16.042L30.4189 12.0127H31.6201L29.1504 18.124H28.5498L26.0801 12.0127H27.2812L28.8164 16.042ZM12.999 11.8789C13.5996 11.879 14.1999 12.1479 14.667 12.5508L14.0664 13.3564C13.7995 13.0879 13.4655 12.8867 13.1318 12.8867C12.7316 12.8199 12.3979 13.1549 12.3311 13.5576C12.3311 13.8934 12.5318 14.0282 13.1992 14.2969C14.5339 14.8341 14.8678 15.2371 14.9346 16.043V16.2441C14.8678 17.3187 13.9996 18.1248 12.9316 18.0576C12.1309 18.0575 11.3301 17.6546 10.9297 16.916L11.6641 16.1768C11.8643 16.6468 12.3313 16.9834 12.8652 16.9834H12.9316C13.332 16.9834 13.7332 16.5803 13.7334 16.1104C13.7334 15.8418 13.5995 15.6402 13.3994 15.5059C13.1325 15.3716 12.8655 15.2371 12.5986 15.1699C11.5307 14.8341 11.1963 14.3635 11.1963 13.5576V13.4912C11.263 12.551 12.0646 11.8117 12.999 11.8789ZM6.05664 12.0127C7.65847 12.0799 8.92698 13.4234 8.86035 15.0352C8.86025 15.908 8.4593 16.714 7.79199 17.3184C7.19145 17.7882 6.45757 18.0573 5.72363 17.9902H4.05469V12.0127H6.05664ZM10.4629 17.9902H9.32812V12.0127H10.4629V17.9902ZM35.3584 13.0205H33.2891V14.3633H35.291V15.3711H33.2891V16.9824H35.3584V17.9902H32.1543V12.0127H35.3584V13.0205ZM37.7607 12.0127C39.0954 12.0128 39.829 12.6173 39.8291 13.7588C39.8958 14.6318 39.2951 15.3706 38.4941 15.5049L40.2969 17.9902H38.8955L37.3604 15.5723H37.2266V17.9902H36.0918V12.0127H37.7607ZM5.52344 13.0195H5.18945V16.9824H5.52344C6.0573 17.0494 6.65822 16.8484 7.05859 16.5127C7.45896 16.1098 7.65914 15.5721 7.65918 14.9678C7.65913 14.4307 7.45883 13.8931 7.05859 13.4902C6.65824 13.1546 6.05723 12.9526 5.52344 13.0195ZM37.2266 14.7656H37.5605C38.2944 14.7655 38.6278 14.4303 38.6279 13.8262C38.6278 13.2891 38.2944 12.9532 37.5605 12.9531H37.2266V14.7656Z" fill="#0A0A0A"/>
<path fill-rule="evenodd" clip-rule="evenodd" d="M23.1445 11.875C21.4759 11.875 20.0742 13.2182 20.0742 14.9643C20.0742 16.6433 21.4091 18.0536 23.1445 18.1208C24.8799 18.1879 26.2148 16.7776 26.2816 15.0315C26.2148 13.2853 24.8799 11.875 23.1445 11.875V11.875Z" fill="#0A0A0A"/>
</svg>
