<svg width="44" height="30" viewBox="0 0 44 30" fill="none" xmlns="http://www.w3.org/2000/svg">
<rect x="0.177703" y="0.177703" width="43.6446" height="29.6446" fill="#F7F1E8" stroke="#F7F1E8" stroke-width="0.355405"/>
<path d="M27.8789 6.25049C32.6167 6.25049 36.458 10.1139 36.458 14.8794C36.458 19.6449 32.6167 23.5083 27.8789 23.5083C25.7547 23.5082 23.8127 22.7293 22.3145 21.4429C20.8162 22.7292 18.8742 23.5083 16.75 23.5083C12.0124 23.5081 8.17188 19.6448 8.17188 14.8794C8.17188 10.114 12.0124 6.25065 16.75 6.25049C18.8739 6.25049 20.8163 7.02891 22.3145 8.31494C23.8126 7.0288 25.7549 6.25054 27.8789 6.25049Z" fill="#ED0006"/>
<path d="M27.8789 6.25098C32.6166 6.25098 36.458 10.1144 36.458 14.8799C36.458 19.6454 32.6167 23.5088 27.8789 23.5088C25.7549 23.5087 23.8126 22.7305 22.3145 21.4443C24.1582 19.8617 25.3291 17.509 25.3291 14.8799C25.3291 12.2507 24.1582 9.89808 22.3145 8.31543C23.8126 7.02929 25.7549 6.25106 27.8789 6.25098Z" fill="#F9A000"/>
<path d="M22.3145 8.31494C24.1582 9.89754 25.329 12.2503 25.3291 14.8794C25.3291 17.5085 24.1581 19.8612 22.3145 21.4438C20.471 19.8612 19.3008 17.5083 19.3008 14.8794C19.3009 12.2505 20.4709 9.89754 22.3145 8.31494Z" fill="#FF5E00"/>
</svg>
