<svg width="44" height="30" viewBox="0 0 44 30" fill="none" xmlns="http://www.w3.org/2000/svg">
<rect x="0.177703" y="0.177703" width="43.6446" height="29.6446" fill="#F7F1E8" stroke="#F7F1E8" stroke-width="0.355405"/>
<path fill-rule="evenodd" clip-rule="evenodd" d="M8.64556 10.626H5.89333C5.70499 10.626 5.54481 10.7621 5.51544 10.9468L4.4023 17.9635C4.38018 18.102 4.48803 18.2268 4.62928 18.2268H5.94323C6.13156 18.2268 6.29174 18.0907 6.32111 17.9055L6.62134 16.0131C6.6503 15.8277 6.81087 15.6918 6.99882 15.6918H7.87008C9.68308 15.6918 10.7293 14.8196 11.0027 13.0911C11.1258 12.335 11.0079 11.7408 10.6517 11.3246C10.2606 10.8678 9.56668 10.626 8.64556 10.626ZM8.96309 13.1887C8.81261 14.1706 8.05803 14.1706 7.32842 14.1706H6.9131L7.20446 12.3368C7.22176 12.2261 7.31834 12.1444 7.43103 12.1444H7.62138C8.11839 12.1444 8.58727 12.1444 8.82956 12.4261C8.9739 12.5942 9.01822 12.8438 8.96309 13.1887ZM16.8727 13.1572H15.5547C15.4424 13.1572 15.3454 13.2389 15.328 13.3498L15.2697 13.7162L15.1776 13.5835C14.8922 13.1717 14.2561 13.0341 13.621 13.0341C12.1645 13.0341 10.9206 14.1308 10.6783 15.6692C10.5524 16.4365 10.7314 17.1703 11.1692 17.682C11.5709 18.1525 12.1457 18.3486 12.8293 18.3486C14.0028 18.3486 14.6537 17.5984 14.6537 17.5984L14.5948 17.9626C14.5727 18.1018 14.6805 18.2266 14.8209 18.2266H16.0082C16.197 18.2266 16.3562 18.0905 16.386 17.9053L17.0984 13.4205C17.1209 13.2826 17.0135 13.1572 16.8727 13.1572ZM15.0355 15.7076C14.9083 16.4561 14.3106 16.9586 13.5486 16.9586C13.1658 16.9586 12.8599 16.8366 12.6636 16.6054C12.4688 16.3758 12.3947 16.0488 12.4567 15.6848C12.5755 14.9425 13.1832 14.4237 13.9337 14.4237C14.3078 14.4237 14.6121 14.5472 14.8125 14.7805C15.0133 15.0162 15.093 15.345 15.0355 15.7076ZM22.5675 13.157H23.892C24.0775 13.157 24.1857 13.3639 24.0803 13.5151L19.6753 19.8367C19.604 19.9391 19.4865 20 19.3609 20H18.0381C17.8519 20 17.7431 19.7915 17.851 19.6399L19.2226 17.715L17.7638 13.4587C17.7133 13.3107 17.8232 13.157 17.9815 13.157H19.2829C19.452 13.157 19.6012 13.2674 19.65 13.4283L20.4242 15.999L22.2509 13.3239C22.3224 13.2194 22.4413 13.157 22.5675 13.157Z" fill="#253B80"/>
<path fill-rule="evenodd" clip-rule="evenodd" d="M36.9282 17.9629L38.0577 10.8179C38.075 10.707 38.1716 10.6254 38.2839 10.625H39.5556C39.696 10.625 39.8038 10.7502 39.7816 10.8887L38.6678 17.9049C38.6387 18.0901 38.4786 18.2262 38.2899 18.2262H37.1542C37.0138 18.2262 36.906 18.1014 36.9282 17.9629ZM28.2777 10.6254H25.525C25.3371 10.6254 25.1769 10.7615 25.1475 10.9462L24.0344 17.9629C24.0122 18.1014 24.1201 18.2262 24.2607 18.2262H25.6731C25.8044 18.2262 25.9167 18.131 25.9371 18.0014L26.253 16.0125C26.2821 15.8271 26.4426 15.6912 26.6305 15.6912H27.5013C29.3147 15.6912 30.3608 14.8189 30.6344 13.0905C30.7578 12.3344 30.6392 11.7402 30.2831 11.324C29.8922 10.8672 29.1989 10.6254 28.2777 10.6254ZM28.5953 13.1881C28.4452 14.17 27.6905 14.17 26.9605 14.17H26.5456L26.8374 12.3362C26.8547 12.2255 26.9505 12.1438 27.0635 12.1438H27.2538C27.7505 12.1438 28.2198 12.1438 28.4619 12.4254C28.6064 12.5936 28.6504 12.8432 28.5953 13.1881ZM36.5041 13.1566H35.187C35.0738 13.1566 34.9777 13.2383 34.9608 13.3492L34.9025 13.7156L34.8099 13.5829C34.5246 13.1711 33.8888 13.0335 33.2537 13.0335C31.7972 13.0335 30.5537 14.1302 30.3114 15.6686C30.1859 16.4359 30.3641 17.1697 30.802 17.6814C31.2044 18.1519 31.7784 18.348 32.4621 18.348C33.6355 18.348 34.2862 17.5978 34.2862 17.5978L34.2276 17.962C34.2054 18.1012 34.3132 18.226 34.4546 18.226H35.6413C35.8292 18.226 35.9893 18.0899 36.0188 17.9047L36.7315 13.4199C36.7533 13.282 36.6455 13.1566 36.5041 13.1566ZM34.6671 15.7069C34.5406 16.4555 33.9423 16.958 33.18 16.958C32.798 16.958 32.4915 16.836 32.295 16.6048C32.1002 16.3752 32.027 16.0482 32.0883 15.6842C32.2077 14.9419 32.8146 14.4231 33.5651 14.4231C33.9395 14.4231 34.2436 14.5466 34.4442 14.7799C34.6457 15.0156 34.7254 15.3444 34.6671 15.7069Z" fill="#179BD7"/>
</svg>
