<svg width="43" height="30" viewBox="0 0 43 30" fill="none" xmlns="http://www.w3.org/2000/svg">
<rect x="0.177703" y="0.177703" width="42.6446" height="29.6446" fill="#F7F1E8" stroke="#F7F1E8" stroke-width="0.355405"/>
<path d="M20.8379 12.3652C20.8511 12.3655 20.8638 12.3712 20.873 12.3809C20.8823 12.3905 20.8877 12.4035 20.8877 12.417V13.1406C21.2227 12.7176 21.7427 12.3672 22.3633 12.3672C23.7564 12.3673 24.8535 13.5451 24.8525 14.998C24.8524 16.5118 23.7498 17.6317 22.4268 17.6318C21.7233 17.6318 21.1843 17.2648 20.9873 16.958H20.9688V19.1816C20.9687 19.195 20.9633 19.2074 20.9541 19.2168C20.9448 19.2263 20.9321 19.2324 20.9189 19.2324H19.6797C19.6665 19.2324 19.653 19.2262 19.6436 19.2168C19.6344 19.2074 19.6292 19.1949 19.6289 19.1816V12.417C19.6289 12.4033 19.6341 12.3895 19.6436 12.3799C19.653 12.3703 19.6664 12.3652 19.6797 12.3652H20.8379ZM21.9453 13.6875C21.6897 13.7424 21.4556 13.8734 21.2734 14.0645C21.0912 14.2557 20.9686 14.4983 20.9219 14.7607C20.8751 15.0231 20.9062 15.2937 21.0107 15.5381C21.1154 15.7826 21.2894 15.9905 21.5098 16.1338C21.73 16.2769 21.9871 16.3494 22.248 16.3428C22.4189 16.3408 22.5881 16.3051 22.7451 16.2363C22.9021 16.1676 23.044 16.0674 23.1631 15.9424C23.2822 15.8174 23.3764 15.6699 23.4395 15.5078C23.5025 15.3458 23.5329 15.1723 23.5303 14.998C23.5296 14.7312 23.451 14.4701 23.3047 14.249C23.1584 14.0282 22.951 13.8569 22.709 13.7568C22.4668 13.6567 22.201 13.6326 21.9453 13.6875Z" fill="#0A0A0A"/>
<path d="M12.8358 13.3786C12.5493 12.765 12.0062 12.3686 11.1878 12.3686C10.9366 12.3731 10.6897 12.4364 10.4663 12.5537C10.2429 12.671 10.0488 12.8391 9.89906 13.0451L9.8692 13.0823V10.6774C9.8692 10.6635 9.86379 10.6502 9.85417 10.6403C9.84454 10.6305 9.83149 10.625 9.81788 10.625H8.66074C8.64729 10.6252 8.63448 10.6309 8.62505 10.6407C8.61563 10.6505 8.61035 10.6637 8.61035 10.6774V17.5757C8.61035 17.5893 8.61566 17.6024 8.62511 17.612C8.63456 17.6217 8.64738 17.6271 8.66074 17.6271H9.9C9.91345 17.6271 9.92636 17.6217 9.93596 17.6121C9.94556 17.6025 9.95108 17.5894 9.95132 17.5757V14.6344C9.95132 14.0627 10.3246 13.6578 10.9218 13.6578C11.575 13.6578 11.7402 14.2066 11.7402 14.7659V17.5757C11.7402 17.5893 11.7455 17.6024 11.755 17.612C11.7644 17.6217 11.7772 17.6271 11.7906 17.6271H13.0271C13.0405 17.6271 13.0534 17.6217 13.063 17.6121C13.0726 17.6025 13.0781 17.5894 13.0784 17.5757V14.5982C13.0784 14.4962 13.0784 14.3962 13.0653 14.299C13.0441 13.9805 12.9663 13.6686 12.8358 13.3786Z" fill="#0A0A0A"/>
<path d="M6.6484 14.4007C6.6484 14.4007 6.01758 14.2492 5.78522 14.1882C5.55286 14.1272 5.14693 13.9976 5.14693 13.6841C5.14693 13.3707 5.47447 13.2706 5.80668 13.2706C6.13889 13.2706 6.50842 13.3526 6.53735 13.7289C6.53852 13.7425 6.54464 13.7551 6.55449 13.7643C6.56434 13.7735 6.57721 13.7785 6.59054 13.7785L7.81207 13.7737C7.81925 13.7737 7.82637 13.7722 7.83297 13.7693C7.83956 13.7664 7.8455 13.7621 7.8504 13.7568C7.85531 13.7514 7.85908 13.7451 7.86147 13.7381C7.86387 13.7312 7.86484 13.7239 7.86432 13.7165C7.78874 12.5122 6.75385 12.0815 5.79921 12.0815C4.66728 12.0815 3.83955 12.8438 3.83955 13.6841C3.83955 14.2978 4.00939 14.8732 5.34476 15.2734C5.57899 15.343 5.8972 15.4335 6.17528 15.5126C6.50936 15.6079 6.68946 15.7517 6.68946 15.9785C6.68946 16.2415 6.31619 16.4244 5.94945 16.4244C5.41848 16.4244 5.04148 16.2234 5.01068 15.8622C5.00908 15.849 5.00278 15.8369 4.99297 15.8281C4.98316 15.8193 4.97054 15.8145 4.95749 15.8146L3.73877 15.8203C3.73162 15.8203 3.72455 15.8218 3.71797 15.8246C3.7114 15.8275 3.70545 15.8317 3.70048 15.8369C3.69552 15.8421 3.69164 15.8484 3.68908 15.8552C3.68652 15.862 3.68533 15.8692 3.68558 15.8765C3.74157 17.0132 4.81658 17.6259 5.81881 17.6259C7.31189 17.6259 7.98657 16.7684 7.98657 15.9651C7.98844 15.5878 7.90352 14.7284 6.6484 14.4007Z" fill="#0A0A0A"/>
<path d="M15.9586 12.0693C14.8024 12.0693 14.2257 12.4705 13.7629 12.7916L13.7489 12.8011C13.725 12.8178 13.7082 12.843 13.7018 12.8718C13.6954 12.9006 13.6999 12.9308 13.7144 12.9564L14.1716 13.7606C14.1802 13.7756 14.1919 13.7885 14.2059 13.7984C14.22 13.8083 14.236 13.8149 14.2528 13.8177C14.2693 13.8208 14.2862 13.82 14.3023 13.8156C14.3184 13.8111 14.3334 13.8031 14.3461 13.792L14.3825 13.7615C14.6205 13.5576 15.0021 13.2851 15.926 13.2108C16.4402 13.1689 16.8844 13.3061 17.2119 13.6186C17.5721 13.9578 17.7877 14.5056 17.7877 15.084C17.7877 16.1483 17.1736 16.8171 16.1873 16.8305C15.3745 16.8257 14.8286 16.3931 14.8286 15.7538C14.8286 15.4146 14.9788 15.1936 15.2718 14.9725C15.2942 14.9562 15.31 14.9321 15.3164 14.9048C15.3227 14.8775 15.3192 14.8487 15.3064 14.8239L14.8958 14.0311C14.8882 14.017 14.8779 14.0044 14.8656 13.9943C14.8533 13.9842 14.8391 13.9766 14.8239 13.9721C14.8084 13.9673 14.792 13.966 14.776 13.9681C14.7599 13.9703 14.7444 13.9758 14.7306 13.9845C14.2696 14.2636 13.7041 14.7743 13.7349 15.7557C13.7722 17.0048 14.7894 17.9586 16.1117 17.9976H16.1779H16.2685C17.8399 17.9452 18.9747 16.7542 18.9747 15.1393C18.9747 13.6567 17.9164 12.0693 15.9586 12.0693Z" fill="#0A0A0A"/>
<path d="M37.9912 10.6416C38.7214 10.6416 39.3134 11.2457 39.3135 11.9912V17.9062C39.3135 18.6519 38.7215 19.2568 37.9912 19.2568H27.4102C26.6799 19.2568 26.0879 18.6519 26.0879 17.9062V11.9912C26.088 11.2457 26.68 10.6416 27.4102 10.6416H37.9912ZM34.6826 13.6807C34.6715 13.6808 34.6603 13.6842 34.6504 13.6895C34.6407 13.6947 34.6324 13.7019 34.626 13.7109C34.6196 13.7201 34.615 13.731 34.6133 13.7422C34.6116 13.7534 34.6127 13.7656 34.6162 13.7764L35.7676 16.7969C35.7731 16.8124 35.7731 16.8292 35.7676 16.8447L35.7314 16.9619C35.689 17.1073 35.5998 17.2347 35.4785 17.3223C35.3573 17.4097 35.2107 17.4528 35.0625 17.4453C34.9764 17.4452 34.8902 17.4373 34.8057 17.4209C34.7954 17.4189 34.7845 17.4192 34.7744 17.4219C34.7645 17.4246 34.755 17.4289 34.7471 17.4355C34.7391 17.4423 34.7329 17.4514 34.7285 17.4609C34.7241 17.4706 34.7216 17.4815 34.7217 17.4922V18.002C34.7209 18.0183 34.7252 18.0345 34.7344 18.0479C34.7436 18.0612 34.7571 18.0714 34.7725 18.0762C34.87 18.1033 34.9712 18.1158 35.0723 18.1133C35.6088 18.1133 36.0989 17.9131 36.3789 17.1338L37.6104 13.7793C37.6139 13.7685 37.6149 13.7564 37.6133 13.7451C37.6116 13.734 37.608 13.7231 37.6016 13.7139C37.5951 13.7046 37.586 13.6977 37.5762 13.6924C37.5664 13.6872 37.5559 13.6838 37.5449 13.6836H36.9707C36.9558 13.6835 36.9408 13.6884 36.9287 13.6973C36.9167 13.7062 36.9079 13.719 36.9033 13.7334L36.2246 15.8574C36.2194 15.8713 36.2102 15.8841 36.1982 15.8926C36.1864 15.9008 36.1725 15.9052 36.1582 15.9053C36.1438 15.9053 36.1291 15.9009 36.1172 15.8926C36.1052 15.8841 36.096 15.8713 36.0908 15.8574L35.3086 13.7275C35.3034 13.7139 35.294 13.7017 35.2822 13.6934C35.2705 13.6852 35.2564 13.6808 35.2422 13.6807H34.6826ZM32.9287 13.5977C32.0732 13.5977 31.672 13.9743 31.5898 14.4697C31.5884 14.4798 31.589 14.4902 31.5918 14.5C31.5946 14.5099 31.5998 14.5196 31.6064 14.5273C31.6131 14.5349 31.6217 14.5409 31.6309 14.5449C31.64 14.5489 31.6502 14.551 31.6602 14.5508H32.208C32.2229 14.5513 32.2379 14.547 32.25 14.5381C32.2621 14.5291 32.2703 14.5156 32.2744 14.501C32.3267 14.2925 32.55 14.1651 32.9033 14.165C33.257 14.165 33.4775 14.3072 33.4775 14.6416V14.8086L32.9229 14.8281C32.3993 14.8491 32.0461 14.9399 31.8184 15.1143C31.7059 15.1964 31.6153 15.3057 31.5547 15.4326C31.4941 15.5597 31.4656 15.7005 31.4717 15.8418C31.4717 16.4211 31.8886 16.7568 32.5166 16.7549C32.9448 16.7549 33.2138 16.6214 33.3789 16.4375C33.3858 16.4284 33.3954 16.422 33.4062 16.4189C33.4169 16.416 33.4282 16.416 33.4385 16.4199C33.4488 16.424 33.4579 16.4319 33.4639 16.4414C33.4698 16.4512 33.4726 16.4632 33.4717 16.4746V16.6055C33.4716 16.6148 33.4741 16.6242 33.4775 16.6328C33.481 16.6415 33.4858 16.6496 33.4922 16.6562C33.4986 16.6629 33.5062 16.6682 33.5146 16.6719C33.5232 16.6755 33.5327 16.6777 33.542 16.6777H34.0957C34.1048 16.6777 34.1137 16.6754 34.1221 16.6719C34.1306 16.6682 34.139 16.663 34.1455 16.6562C34.1519 16.6496 34.1567 16.6415 34.1602 16.6328C34.1636 16.6242 34.1651 16.6148 34.165 16.6055V14.8535C34.165 14.0295 33.8375 13.5977 32.9287 13.5977ZM28.2256 12.1699C28.2071 12.1699 28.1889 12.1771 28.1758 12.1904C28.1627 12.2038 28.1553 12.2223 28.1553 12.2412V16.6074C28.1555 16.6263 28.1627 16.6449 28.1758 16.6582C28.1889 16.6716 28.2071 16.6794 28.2256 16.6797H28.8115C28.8299 16.6796 28.8473 16.6715 28.8604 16.6582C28.8735 16.6448 28.8809 16.6264 28.8809 16.6074V15.3975C28.8809 15.3788 28.8886 15.3609 28.9014 15.3477C28.9145 15.3343 28.9326 15.3262 28.9512 15.3262H29.7832C30.666 15.3262 31.2979 14.6684 31.2979 13.7471C31.2976 12.8307 30.6658 12.1699 29.7832 12.1699H28.2256ZM33.4775 15.4619C33.4774 15.9315 33.1934 16.1963 32.7139 16.1963C32.3615 16.1962 32.1593 16.06 32.1592 15.8154C32.1592 15.5449 32.3801 15.3834 32.7588 15.3633L33.4775 15.3252V15.4619ZM29.7393 12.833C30.2186 12.8332 30.5721 13.2196 30.5723 13.7471C30.5723 14.2757 30.2187 14.6619 29.7393 14.6621H28.9512C28.9329 14.6621 28.9154 14.6547 28.9023 14.6416C28.8893 14.6284 28.8811 14.6105 28.8809 14.5918V12.9043C28.8811 12.8855 28.8893 12.8678 28.9023 12.8545C28.9154 12.8412 28.9327 12.8333 28.9512 12.833H29.7393Z" fill="#0A0A0A"/>
</svg>
