<svg width="44" height="30" viewBox="0 0 44 30" fill="none" xmlns="http://www.w3.org/2000/svg">
<g clip-path="url(#clip0_2737_3061)">
<rect width="44" height="30" fill="#0A0A0A"/>
<path d="M23.2216 19.4405C23.2216 19.744 23.018 20.0476 22.6109 20.0476H21.1862V18.9345H22.6109C23.018 18.9345 23.2216 19.1369 23.2216 19.4405Z" fill="#F7F1E8"/>
<path d="M27.8011 18.9345C28.2082 18.9345 28.4118 19.1369 28.4118 19.4405C28.4118 19.744 28.2082 19.9464 27.8011 19.9464H26.3764V18.9345H27.8011Z" fill="#F7F1E8"/>
<path fill-rule="evenodd" clip-rule="evenodd" d="M28.0047 23.8929H42.2523C42.6609 23.8929 43.0238 23.8023 43.3717 23.6514V22.4529C43.0902 22.6589 42.7146 22.7797 42.2523 22.7797H39.6063V21.6667H42.2523C42.4558 21.6667 42.6594 21.5655 42.8629 21.3631C42.8629 21.1607 42.6594 20.9583 42.3541 20.9583H41.1328C40.1152 20.9583 39.5045 20.3512 39.5045 19.4405C39.5045 18.5298 40.1152 17.8214 41.2346 17.8214H43.3717V16.8095H17.6243L16.9119 17.7202L16.1995 16.8095H8.7704V23.8929H16.1995L16.9119 22.8809L17.6243 23.8929H22.2039V22.2738H22.7127C23.2216 22.2738 23.6286 22.1726 24.0357 22.0714V23.8929H27.0888V22.6786L28.0047 23.8929ZM14.0624 18.9345V17.8214H9.88986V22.8809H14.0624V22.7797H15.6907L16.9119 21.1607L18.1331 22.7797H19.7614L17.726 20.25L19.7614 17.7202H18.1331L16.9119 19.2381L15.6907 17.7202H14.0624L16.0977 20.25L14.0624 22.7797V21.7678H11.2129V20.8571H13.9606V19.744H11.2129V18.9345H14.0624ZM19.8632 22.7797H21.1862V21.1607H22.7127C23.8322 21.1607 24.5446 20.4524 24.5446 19.4405C24.5446 18.4286 23.8322 17.7202 22.8145 17.7202H19.8632V22.7797ZM26.3764 21.0595H26.8852L28.4118 22.8809H30.0401L28.4118 21.0595C29.2259 20.8571 29.7348 20.25 29.7348 19.4405C29.7348 18.4286 29.0224 17.8214 28.0047 17.8214H25.0534V22.8809H26.3764V21.0595ZM34.3143 18.9345V17.8214H30.1418V22.8809H34.3143V21.7678H31.4648V20.8571H34.2126V19.744H31.4648V18.9345H34.3143ZM37.5709 21.6667H34.925V22.7797H37.5709C38.6904 22.7797 39.301 22.0714 39.301 21.1607C39.301 20.25 38.6904 19.744 37.6727 19.744H36.4515C36.1462 19.744 36.0444 19.5417 36.0444 19.3393C36.0444 19.0357 36.248 18.9345 36.4515 18.9345H38.6904L39.1992 17.8214H36.5533C35.4338 17.8214 34.8232 18.5298 34.8232 19.4405C34.8232 20.3512 35.4338 20.9583 36.4515 20.9583H37.6727C37.978 20.9583 38.1816 21.1607 38.1816 21.3631C37.978 21.5655 37.7745 21.6667 37.5709 21.6667Z" fill="#F7F1E8"/>
<path d="M43.3718 18.9345L43.3717 19.9833C43.1073 19.826 42.7637 19.744 42.3541 19.744H41.1328C40.8275 19.744 40.624 19.5417 40.624 19.3393C40.624 19.0357 40.8275 18.9345 41.1328 18.9345H43.3718Z" fill="#F7F1E8"/>
<path d="M3.68197 9.72618L2.96958 11.4464H4.39435L3.68197 9.72618Z" fill="#F7F1E8"/>
<path d="M22.2039 10.1309C22.2039 9.82737 22.0003 9.62499 21.5933 9.62499H20.1685V10.6369H21.5933C22.0003 10.6369 22.2039 10.4345 22.2039 10.1309Z" fill="#F7F1E8"/>
<path d="M31.9737 9.72618L31.2613 11.4464H32.686L31.9737 9.72618Z" fill="#F7F1E8"/>
<path fill-rule="evenodd" clip-rule="evenodd" d="M0.628906 14.6845H2.76605L3.17312 13.6726H4.08904L4.49612 14.6845H20.9826V13.4702L21.8986 14.5833H26.3764V13.9762C26.987 14.4821 27.8011 14.5833 28.5135 14.5833H31.1595L31.5666 13.5714H32.4825L32.8896 14.5833H37.2656V13.369L38.1816 14.5833H41.3364V7.5H38.1816V8.81547L37.3674 7.5H34.4161V9.32143L33.602 7.5H28.7171C27.8011 7.5 27.0888 7.80357 26.4782 8.20833V7.5H10.6022L10.0934 8.91667L9.58455 7.5H5.92088V9.32143L5.10673 7.5H2.15544L0.628906 10.9405V13.5714V14.6845ZM0.628906 13.5714H2.05367L2.46074 12.5595H4.80142L5.2085 13.5714H6.63326L4.49612 8.51189H2.76605L0.628906 13.5714ZM10.5005 13.5714H9.38101L8.15979 9.82737V13.5714H6.8368V8.51189H8.87217L9.99162 11.75L11.1111 8.51189H13.1465V13.5714H11.8235V9.82737L10.5005 13.5714ZM18.2349 8.51189V9.62499H15.3854V10.4345H18.1331V11.5476H15.3854V12.4583H18.2349V13.5714H14.0624V8.51189H18.2349ZM20.6773 11.75H20.1685L20.2703 13.5714H18.9473V8.51189H21.7968C22.8145 8.51189 23.5269 9.11904 23.5269 10.1309C23.5269 10.9405 23.018 11.5476 22.2039 11.75L23.8322 13.5714H22.2039L20.6773 11.75ZM25.3587 13.5714H24.0357V8.51189H25.3587V13.5714ZM28.9206 12.4583L28.31 13.5714C26.8852 13.5714 25.9693 12.6607 25.9693 11.1428V11.0417C25.9693 9.5238 26.7835 8.51189 28.4118 8.51189H29.8365V9.72618H28.5135C27.5976 9.72618 27.1905 10.2321 27.1905 11.0417V11.1428C27.1905 11.9524 27.6994 12.4583 28.5135 12.4583H28.9206ZM35.0267 13.5714H33.602L33.1949 12.5595H30.8542L30.4471 13.5714H29.0224L31.1595 8.51189H32.8896L35.0267 13.5714ZM40.0134 13.5714H38.4869L36.3497 10.3333V13.5714H35.0267V8.51189H36.655L38.6904 11.6488V8.51189H40.0134V13.5714Z" fill="#F7F1E8"/>
</g>
<defs>
<clipPath id="clip0_2737_3061">
<rect width="44" height="30" fill="white"/>
</clipPath>
</defs>
</svg>
