<svg width="44" height="30" viewBox="0 0 44 30" fill="none" xmlns="http://www.w3.org/2000/svg">
<rect x="0.177703" y="0.177703" width="43.6446" height="29.6446" fill="#F7F1E8" stroke="#F7F1E8" stroke-width="0.355405"/>
<path fill-rule="evenodd" clip-rule="evenodd" d="M13.3576 20.3232H10.692L8.69317 12.7408C8.5983 12.3921 8.39685 12.0837 8.10054 11.9384C7.36105 11.5732 6.54618 11.2825 5.65723 11.1359V10.844H9.95121C10.5438 10.844 10.9883 11.2825 11.0624 11.7918L12.0995 17.2612L14.7638 10.844H17.3552L13.3576 20.3232ZM18.8368 20.3234H16.3194L18.3923 10.8442H20.9097L18.8368 20.3234ZM24.1662 13.4701C24.2403 12.9596 24.6848 12.6677 25.2033 12.6677C26.0182 12.5944 26.9058 12.741 27.6466 13.1049L28.0911 11.064C27.3503 10.7721 26.5354 10.6255 25.7959 10.6255C23.3526 10.6255 21.5747 11.9385 21.5747 13.7608C21.5747 15.1471 22.8341 15.875 23.723 16.3135C24.6848 16.7508 25.0551 17.0427 24.9811 17.4799C24.9811 18.1358 24.2403 18.4277 23.5008 18.4277C22.6118 18.4277 21.7229 18.2091 20.9093 17.8439L20.4648 19.8861C21.3538 20.25 22.3155 20.3966 23.2045 20.3966C25.9441 20.4686 27.6466 19.1569 27.6466 17.188C27.6466 14.7086 24.1662 14.5633 24.1662 13.4701ZM36.4575 20.3234L34.4587 10.8442H32.3117C31.8672 10.8442 31.4228 11.1362 31.2746 11.5734L27.5732 20.3234H30.1647L30.682 18.9384H33.8661L34.1624 20.3234H36.4575ZM32.6821 13.3967L33.4215 16.9693H31.3486L32.6821 13.3967Z" fill="#2056A6"/>
</svg>
